<svg xmlns="http://www.w3.org/2000/svg" version="1.1" xmlns:xlink="http://www.w3.org/1999/xlink" width="430" height="344"><svg width="430" height="344" viewBox="0 0 430 344" fill="none" xmlns="http://www.w3.org/2000/svg">
<path d="M430 0H322.5L271.465 111.745C291.01 130.369 271.465 151.185 253.005 155.567L244.318 167.618L322.5 227.873L430 0Z" fill="#FF752B"></path>
<path d="M165.051 117.223L109.672 0H0C54.2929 113.206 162.879 339.837 162.879 340.713C162.879 341.59 165.774 343.27 167.222 344H262.778C266.035 344 268.207 341.444 268.207 340.713L297.525 278.268L216.086 203.771L210.657 210.344C215 238.39 190.025 246.497 175.909 241.019L118.359 192.815C107.934 171.781 122.702 157.758 134.646 155.567L165.051 117.223Z" fill="#FF752B"></path>
<path d="M195.455 210.344L142.247 168.713C138.887 166.084 135.78 167.618 134.646 168.713C133.561 169.809 130.737 172.876 128.131 176.382C125.525 179.888 127.045 182.955 128.131 184.051L182.424 230.064C185.004 232.667 189.216 230.116 191.056 229.002L191.111 228.968C192.197 228.238 195.02 225.682 197.626 221.299C200.232 216.917 197.264 212.17 195.455 210.344Z" fill="#FF752B"></path>
<path d="M192.197 90.9299L247.576 139.134C251.919 143.516 253.587 143.516 257.348 141.325C261.11 139.134 265.601 134.971 268.207 131.465C270.813 127.959 270.379 125.335 266.035 121.605C249.024 106.998 213.914 76.907 209.571 73.4013C205.227 69.8955 201.97 70.1146 198.712 73.4013C197.988 74.1316 192.197 81.0701 192.197 81.0701C190.025 83.2611 188.939 87.6433 192.197 90.9299Z" fill="#FF752B"></path>
<path d="M190.025 105.172L146.591 159.949L200.884 201.58L215 185.146L322.5 282.65C333.359 293.605 355.076 272.79 340.96 258.548L226.944 168.713L243.232 148.994L190.025 105.172Z" fill="#FF752B"></path>
</svg><style>@media (prefers-color-scheme: light) { :root { filter: none; } }
@media (prefers-color-scheme: dark) { :root { filter: none; } }
</style></svg>